<mxfile host="app.diagrams.net" modified="2023-06-12T20:21:21.923Z" agent="Mozilla/5.0 (Macintosh; Intel Mac OS X 10.15; rv:109.0) Gecko/20100101 Firefox/114.0" etag="VVO44fpsT6Jaj7cEBkIt" version="21.3.8" type="github">
  <diagram name="Page-1" id="90a13364-a465-7bf4-72fc-28e22215d7a0">
    <mxGraphModel dx="1363" dy="917" grid="1" gridSize="10" guides="1" tooltips="1" connect="1" arrows="1" fold="1" page="1" pageScale="1.5" pageWidth="1169" pageHeight="826" background="none" math="0" shadow="0">
      <root>
        <mxCell id="0" style=";html=1;" />
        <mxCell id="1" style=";html=1;" parent="0" />
        <mxCell id="YzKj1ZApkS9-Ht2kz3JE-1" value="" style="shape=cylinder3;whiteSpace=wrap;html=1;boundedLbl=1;backgroundOutline=1;size=6;dashed=1;" vertex="1" parent="1">
          <mxGeometry x="225" y="194" width="160" height="656" as="geometry" />
        </mxCell>
        <mxCell id="3a17f1ce550125da-24" style="edgeStyle=elbowEdgeStyle;rounded=0;html=1;startArrow=none;startFill=0;jettySize=auto;orthogonalLoop=1;fontSize=18;" parent="1" edge="1">
          <mxGeometry relative="1" as="geometry">
            <mxPoint x="324.5" y="669" as="sourcePoint" />
            <mxPoint x="390" y="160" as="targetPoint" />
            <Array as="points">
              <mxPoint x="330" y="100" />
              <mxPoint x="354.5" y="699" />
            </Array>
          </mxGeometry>
        </mxCell>
        <mxCell id="YzKj1ZApkS9-Ht2kz3JE-14" value="" style="endArrow=classic;html=1;rounded=0;exitX=1.018;exitY=0.675;exitDx=0;exitDy=0;exitPerimeter=0;" edge="1" parent="1" source="YzKj1ZApkS9-Ht2kz3JE-13">
          <mxGeometry width="50" height="50" relative="1" as="geometry">
            <mxPoint x="580" y="320" as="sourcePoint" />
            <mxPoint x="290" y="540" as="targetPoint" />
            <Array as="points">
              <mxPoint x="290" y="164" />
            </Array>
          </mxGeometry>
        </mxCell>
        <mxCell id="YzKj1ZApkS9-Ht2kz3JE-27" style="edgeStyle=orthogonalEdgeStyle;rounded=0;orthogonalLoop=1;jettySize=auto;html=1;exitX=0.5;exitY=1;exitDx=0;exitDy=0;exitPerimeter=0;" edge="1" parent="1" source="YzKj1ZApkS9-Ht2kz3JE-1" target="YzKj1ZApkS9-Ht2kz3JE-1">
          <mxGeometry relative="1" as="geometry" />
        </mxCell>
        <mxCell id="YzKj1ZApkS9-Ht2kz3JE-34" value="" style="edgeStyle=none;orthogonalLoop=1;jettySize=auto;html=1;rounded=0;startArrow=classic;startFill=1;" edge="1" parent="1">
          <mxGeometry width="80" relative="1" as="geometry">
            <mxPoint x="400" y="200" as="sourcePoint" />
            <mxPoint x="400" y="840" as="targetPoint" />
            <Array as="points" />
          </mxGeometry>
        </mxCell>
        <mxCell id="YzKj1ZApkS9-Ht2kz3JE-35" value="&lt;div style=&quot;font-size: 19px;&quot;&gt;&lt;font style=&quot;font-size: 19px;&quot; color=&quot;#0a0a0a&quot;&gt;The Hole Depth 100-300 [m] - &lt;br style=&quot;font-size: 19px;&quot;&gt;&lt;/font&gt;&lt;/div&gt;&lt;div style=&quot;font-size: 19px;&quot;&gt;&lt;font style=&quot;font-size: 19px;&quot; color=&quot;#0a0a0a&quot;&gt;to be determined&lt;/font&gt;&lt;/div&gt;" style="text;strokeColor=none;align=center;fillColor=none;html=1;verticalAlign=middle;whiteSpace=wrap;rounded=0;strokeWidth=4;fontStyle=0;fontSize=19;fontColor=#4F4F4F;" vertex="1" parent="1">
          <mxGeometry x="410" y="430" width="130" height="96" as="geometry" />
        </mxCell>
        <mxCell id="YzKj1ZApkS9-Ht2kz3JE-36" value="&lt;font style=&quot;font-size: 24px;&quot;&gt;&lt;b&gt;CATH:&lt;/b&gt; &lt;b&gt;C&lt;/b&gt;alibration &lt;b&gt;T&lt;/b&gt;ower + &lt;b&gt;H&lt;/b&gt;ole&lt;/font&gt;" style="text;strokeColor=none;align=center;fillColor=none;html=1;verticalAlign=middle;whiteSpace=wrap;rounded=0;strokeWidth=4;fontStyle=0;fontSize=17;fontColor=#FF0000;" vertex="1" parent="1">
          <mxGeometry x="60" y="40" width="390" height="60" as="geometry" />
        </mxCell>
        <mxCell id="YzKj1ZApkS9-Ht2kz3JE-37" value="&lt;div style=&quot;font-size: 20px;&quot;&gt;&lt;span style=&quot;font-size: 20px;&quot;&gt;IceCube Gen2 Radio Receiver Station &lt;br style=&quot;font-size: 20px;&quot;&gt;&lt;/span&gt;&lt;/div&gt;&lt;div style=&quot;font-size: 20px;&quot;&gt;&lt;span style=&quot;font-size: 20px;&quot;&gt;- Simplified&lt;/span&gt;&lt;/div&gt;&lt;div style=&quot;font-size: 20px;&quot;&gt;&lt;span style=&quot;font-size: 20px;&quot;&gt;&lt;/span&gt;&lt;/div&gt;" style="text;strokeColor=none;align=center;fillColor=none;html=1;verticalAlign=middle;whiteSpace=wrap;rounded=0;strokeWidth=4;fontStyle=0;fontSize=20;fontColor=#FF0000;" vertex="1" parent="1">
          <mxGeometry x="750" y="40" width="390" height="96" as="geometry" />
        </mxCell>
        <mxCell id="YzKj1ZApkS9-Ht2kz3JE-38" value="" style="shape=cylinder3;whiteSpace=wrap;html=1;boundedLbl=1;backgroundOutline=1;size=6;dashed=1;" vertex="1" parent="1">
          <mxGeometry x="960" y="194" width="60" height="396" as="geometry" />
        </mxCell>
        <mxCell id="YzKj1ZApkS9-Ht2kz3JE-39" value="&lt;font style=&quot;font-size: 19px;&quot; color=&quot;#0a0a0a&quot;&gt;Surface Antenna&lt;br style=&quot;font-size: 19px;&quot;&gt;&lt;/font&gt;" style="text;strokeColor=none;align=center;fillColor=none;html=1;verticalAlign=middle;whiteSpace=wrap;rounded=0;strokeWidth=4;fontStyle=0;fontSize=19;fontColor=#4F4F4F;" vertex="1" parent="1">
          <mxGeometry x="820" y="164" width="90" height="30" as="geometry" />
        </mxCell>
        <mxCell id="YzKj1ZApkS9-Ht2kz3JE-2" value="The Hole" style="text;strokeColor=none;align=center;fillColor=none;html=1;verticalAlign=middle;whiteSpace=wrap;rounded=0;strokeWidth=4;fontStyle=0;fontSize=19;fontColor=#4F4F4F;" vertex="1" parent="1">
          <mxGeometry x="240" y="210" width="90" height="30" as="geometry" />
        </mxCell>
        <mxCell id="YzKj1ZApkS9-Ht2kz3JE-13" value="Power Source" style="whiteSpace=wrap;html=1;shadow=1;fontSize=19;fillColor=#f5f5f5;strokeColor=#666666;" vertex="1" parent="1">
          <mxGeometry x="130" y="110" width="110" height="80" as="geometry" />
        </mxCell>
        <mxCell id="YzKj1ZApkS9-Ht2kz3JE-23" value="" style="verticalLabelPosition=bottom;shadow=0;dashed=0;align=center;html=1;verticalAlign=top;shape=mxgraph.electrical.radio.aerial_-_antenna_1;strokeWidth=3;" vertex="1" parent="1">
          <mxGeometry x="385" y="125" width="70" height="65" as="geometry" />
        </mxCell>
        <mxCell id="YzKj1ZApkS9-Ht2kz3JE-24" value="&lt;font style=&quot;font-size: 19px;&quot; color=&quot;#0a0a0a&quot;&gt;Surface Antenna&lt;br style=&quot;font-size: 19px;&quot;&gt;&lt;/font&gt;" style="text;strokeColor=none;align=center;fillColor=none;html=1;verticalAlign=middle;whiteSpace=wrap;rounded=0;strokeWidth=4;fontStyle=0;fontSize=19;fontColor=#4F4F4F;" vertex="1" parent="1">
          <mxGeometry x="425" y="160" width="90" height="30" as="geometry" />
        </mxCell>
        <mxCell id="YzKj1ZApkS9-Ht2kz3JE-40" value="" style="verticalLabelPosition=bottom;shadow=0;dashed=0;align=center;html=1;verticalAlign=top;shape=mxgraph.electrical.radio.aerial_-_antenna_1;strokeWidth=3;" vertex="1" parent="1">
          <mxGeometry x="890" y="125" width="70" height="65" as="geometry" />
        </mxCell>
        <mxCell id="YzKj1ZApkS9-Ht2kz3JE-64" value="" style="group" vertex="1" connectable="0" parent="1">
          <mxGeometry x="970" y="520" width="30" height="60" as="geometry" />
        </mxCell>
        <mxCell id="YzKj1ZApkS9-Ht2kz3JE-65" value="" style="shape=cylinder3;whiteSpace=wrap;html=1;boundedLbl=1;backgroundOutline=1;size=15;container=1;" vertex="1" parent="YzKj1ZApkS9-Ht2kz3JE-64">
          <mxGeometry y="19.243360535874324" width="30" height="40.75663946412565" as="geometry" />
        </mxCell>
        <mxCell id="YzKj1ZApkS9-Ht2kz3JE-66" value="" style="shape=cylinder3;whiteSpace=wrap;html=1;boundedLbl=1;backgroundOutline=1;size=15;" vertex="1" parent="YzKj1ZApkS9-Ht2kz3JE-64">
          <mxGeometry width="30" height="40.75663946412565" as="geometry" />
        </mxCell>
        <mxCell id="YzKj1ZApkS9-Ht2kz3JE-61" value="" style="group" vertex="1" connectable="0" parent="1">
          <mxGeometry x="970" y="470" width="30" height="60" as="geometry" />
        </mxCell>
        <mxCell id="YzKj1ZApkS9-Ht2kz3JE-62" value="" style="shape=cylinder3;whiteSpace=wrap;html=1;boundedLbl=1;backgroundOutline=1;size=15;container=1;" vertex="1" parent="YzKj1ZApkS9-Ht2kz3JE-61">
          <mxGeometry y="19.243360535874324" width="30" height="40.75663946412565" as="geometry" />
        </mxCell>
        <mxCell id="YzKj1ZApkS9-Ht2kz3JE-63" value="" style="shape=cylinder3;whiteSpace=wrap;html=1;boundedLbl=1;backgroundOutline=1;size=15;" vertex="1" parent="YzKj1ZApkS9-Ht2kz3JE-61">
          <mxGeometry width="30" height="40.75663946412565" as="geometry" />
        </mxCell>
        <mxCell id="YzKj1ZApkS9-Ht2kz3JE-57" value="" style="group" vertex="1" connectable="0" parent="1">
          <mxGeometry x="970" y="420" width="30" height="60" as="geometry" />
        </mxCell>
        <mxCell id="YzKj1ZApkS9-Ht2kz3JE-58" value="" style="shape=cylinder3;whiteSpace=wrap;html=1;boundedLbl=1;backgroundOutline=1;size=15;container=1;" vertex="1" parent="YzKj1ZApkS9-Ht2kz3JE-57">
          <mxGeometry y="19.243360535874324" width="30" height="40.75663946412565" as="geometry" />
        </mxCell>
        <mxCell id="YzKj1ZApkS9-Ht2kz3JE-59" value="" style="shape=cylinder3;whiteSpace=wrap;html=1;boundedLbl=1;backgroundOutline=1;size=15;" vertex="1" parent="YzKj1ZApkS9-Ht2kz3JE-57">
          <mxGeometry width="30" height="40.75663946412565" as="geometry" />
        </mxCell>
        <mxCell id="YzKj1ZApkS9-Ht2kz3JE-53" value="" style="group" vertex="1" connectable="0" parent="1">
          <mxGeometry x="970" y="370" width="30" height="60" as="geometry" />
        </mxCell>
        <mxCell id="YzKj1ZApkS9-Ht2kz3JE-54" value="" style="shape=cylinder3;whiteSpace=wrap;html=1;boundedLbl=1;backgroundOutline=1;size=15;container=1;" vertex="1" parent="YzKj1ZApkS9-Ht2kz3JE-53">
          <mxGeometry y="19.243360535874324" width="30" height="40.75663946412565" as="geometry" />
        </mxCell>
        <mxCell id="YzKj1ZApkS9-Ht2kz3JE-55" value="" style="shape=cylinder3;whiteSpace=wrap;html=1;boundedLbl=1;backgroundOutline=1;size=15;" vertex="1" parent="YzKj1ZApkS9-Ht2kz3JE-53">
          <mxGeometry width="30" height="40.75663946412565" as="geometry" />
        </mxCell>
        <mxCell id="YzKj1ZApkS9-Ht2kz3JE-73" value="" style="edgeStyle=none;orthogonalLoop=1;jettySize=auto;html=1;rounded=0;" edge="1" parent="1" source="YzKj1ZApkS9-Ht2kz3JE-55">
          <mxGeometry width="80" relative="1" as="geometry">
            <mxPoint x="980" y="370" as="sourcePoint" />
            <mxPoint x="950" y="170" as="targetPoint" />
            <Array as="points">
              <mxPoint x="985" y="170" />
            </Array>
          </mxGeometry>
        </mxCell>
        <mxCell id="YzKj1ZApkS9-Ht2kz3JE-76" value="" style="edgeStyle=none;orthogonalLoop=1;jettySize=auto;html=1;rounded=0;startArrow=classic;startFill=1;" edge="1" parent="1">
          <mxGeometry width="80" relative="1" as="geometry">
            <mxPoint x="950" y="200" as="sourcePoint" />
            <mxPoint x="950" y="590" as="targetPoint" />
            <Array as="points" />
          </mxGeometry>
        </mxCell>
        <mxCell id="YzKj1ZApkS9-Ht2kz3JE-77" value="&lt;font style=&quot;font-size: 19px;&quot; color=&quot;#0a0a0a&quot;&gt;150 [m]&lt;/font&gt;" style="text;strokeColor=none;align=center;fillColor=none;html=1;verticalAlign=middle;whiteSpace=wrap;rounded=0;strokeWidth=4;fontStyle=0;fontSize=19;fontColor=#4F4F4F;" vertex="1" parent="1">
          <mxGeometry x="850" y="348" width="130" height="96" as="geometry" />
        </mxCell>
        <mxCell id="YzKj1ZApkS9-Ht2kz3JE-81" value="" style="group" vertex="1" connectable="0" parent="1">
          <mxGeometry x="190" y="444" width="160" height="392" as="geometry" />
        </mxCell>
        <mxCell id="3a17f1ce550125da-26" style="edgeStyle=elbowEdgeStyle;rounded=0;html=1;startArrow=none;startFill=0;jettySize=auto;orthogonalLoop=1;fontSize=18;" parent="YzKj1ZApkS9-Ht2kz3JE-81" edge="1">
          <mxGeometry relative="1" as="geometry">
            <mxPoint x="70" y="225" as="sourcePoint" />
            <mxPoint x="70" y="265" as="targetPoint" />
            <Array as="points">
              <mxPoint x="70" y="245" />
              <mxPoint x="100" y="255" />
            </Array>
          </mxGeometry>
        </mxCell>
        <mxCell id="YzKj1ZApkS9-Ht2kz3JE-3" value="IDL-pulser" style="whiteSpace=wrap;html=1;shadow=1;fontSize=19;fillColor=#f5f5f5;strokeColor=#666666;" vertex="1" parent="YzKj1ZApkS9-Ht2kz3JE-81">
          <mxGeometry x="50" y="90" width="80" height="70" as="geometry" />
        </mxCell>
        <mxCell id="YzKj1ZApkS9-Ht2kz3JE-6" value="&lt;font style=&quot;font-size: 19px;&quot; color=&quot;#0a0a0a&quot;&gt;RF output&lt;/font&gt;" style="text;strokeColor=none;align=center;fillColor=none;html=1;verticalAlign=middle;whiteSpace=wrap;rounded=0;strokeWidth=4;fontStyle=0;fontSize=19;fontColor=#4F4F4F;" vertex="1" parent="YzKj1ZApkS9-Ht2kz3JE-81">
          <mxGeometry y="161" width="90" height="30" as="geometry" />
        </mxCell>
        <mxCell id="YzKj1ZApkS9-Ht2kz3JE-7" value="Tee-splitter" style="whiteSpace=wrap;html=1;shadow=1;fontSize=19;fillColor=#f5f5f5;strokeColor=#666666;" vertex="1" parent="YzKj1ZApkS9-Ht2kz3JE-81">
          <mxGeometry x="50" y="196" width="110" height="29" as="geometry" />
        </mxCell>
        <mxCell id="YzKj1ZApkS9-Ht2kz3JE-4" style="edgeStyle=elbowEdgeStyle;rounded=0;html=1;startArrow=none;startFill=0;jettySize=auto;orthogonalLoop=1;fontSize=18;" edge="1" parent="YzKj1ZApkS9-Ht2kz3JE-81">
          <mxGeometry relative="1" as="geometry">
            <mxPoint x="90" y="160" as="sourcePoint" />
            <mxPoint x="90" y="200" as="targetPoint" />
            <Array as="points">
              <mxPoint x="90" y="180" />
              <mxPoint x="120" y="190" />
            </Array>
          </mxGeometry>
        </mxCell>
        <mxCell id="3a17f1ce550125da-25" style="edgeStyle=elbowEdgeStyle;rounded=0;html=1;startArrow=none;startFill=0;jettySize=auto;orthogonalLoop=1;fontSize=18;" parent="YzKj1ZApkS9-Ht2kz3JE-81" edge="1">
          <mxGeometry relative="1" as="geometry">
            <mxPoint x="70" y="226" as="sourcePoint" />
            <mxPoint x="70" y="266" as="targetPoint" />
            <Array as="points">
              <mxPoint x="70" y="246" />
              <mxPoint x="100" y="256" />
            </Array>
          </mxGeometry>
        </mxCell>
        <mxCell id="YzKj1ZApkS9-Ht2kz3JE-15" value="&lt;font style=&quot;font-size: 19px;&quot; color=&quot;#0a0a0a&quot;&gt;Power Cable&lt;br style=&quot;font-size: 19px;&quot;&gt;&lt;/font&gt;" style="text;strokeColor=none;align=center;fillColor=none;html=1;verticalAlign=middle;whiteSpace=wrap;rounded=0;strokeWidth=4;fontStyle=0;fontSize=19;fontColor=#4F4F4F;" vertex="1" parent="YzKj1ZApkS9-Ht2kz3JE-81">
          <mxGeometry x="70" width="90" height="30" as="geometry" />
        </mxCell>
        <mxCell id="YzKj1ZApkS9-Ht2kz3JE-18" value="" style="group" vertex="1" connectable="0" parent="YzKj1ZApkS9-Ht2kz3JE-81">
          <mxGeometry x="50" y="266" width="40" height="126" as="geometry" />
        </mxCell>
        <mxCell id="YzKj1ZApkS9-Ht2kz3JE-17" value="" style="shape=cylinder3;whiteSpace=wrap;html=1;boundedLbl=1;backgroundOutline=1;size=15;" vertex="1" parent="YzKj1ZApkS9-Ht2kz3JE-18">
          <mxGeometry y="54.847058823529416" width="40" height="71.1529411764706" as="geometry" />
        </mxCell>
        <mxCell id="YzKj1ZApkS9-Ht2kz3JE-16" value="" style="shape=cylinder3;whiteSpace=wrap;html=1;boundedLbl=1;backgroundOutline=1;size=15;" vertex="1" parent="YzKj1ZApkS9-Ht2kz3JE-18">
          <mxGeometry width="40" height="71.1529411764706" as="geometry" />
        </mxCell>
        <mxCell id="YzKj1ZApkS9-Ht2kz3JE-19" value="&lt;font style=&quot;font-size: 19px;&quot; color=&quot;#0a0a0a&quot;&gt;V-pol Antenna&lt;br style=&quot;font-size: 19px;&quot;&gt;&lt;/font&gt;" style="text;strokeColor=none;align=center;fillColor=none;html=1;verticalAlign=middle;whiteSpace=wrap;rounded=0;strokeWidth=4;fontStyle=0;fontSize=19;fontColor=#4F4F4F;" vertex="1" parent="YzKj1ZApkS9-Ht2kz3JE-81">
          <mxGeometry x="50" y="356" width="90" height="30" as="geometry" />
        </mxCell>
      </root>
    </mxGraphModel>
  </diagram>
</mxfile>
